<svg width="224" height="50" viewBox="0 0 224 50" fill="none" xmlns="http://www.w3.org/2000/svg">
<path d="M93.3431 34.7455C92.5798 29.8836 88.6157 28.2832 81.9626 28.2832C75.3094 28.2832 70.3543 30.1525 70.3543 36.1355C70.3543 42.1186 75.4504 44.0681 81.9626 44.0681C86.831 44.0681 92.608 43.3742 93.3431 37.3109H85.9245C85.4431 39.2062 83.9706 39.7397 81.9908 39.7397C79.189 39.7397 77.7729 38.2998 77.7729 36.0553C77.7729 34.1036 78.8767 32.4512 82.0471 32.4512C82.9536 32.4512 83.9446 32.5835 84.5952 32.9066C85.3867 33.2796 85.8399 33.8412 85.9245 34.7477H93.3431V34.7455ZM68.0882 28.8709H61.01V35.7626C61.01 37.9506 59.9344 39.2604 57.7247 39.2604C56.0527 39.2604 55.0075 38.4581 55.0075 36.6148V28.8709H47.9293V38.3518C47.9293 42.4113 50.8742 44.0681 54.7819 44.0681C58.1801 44.0681 60.444 42.7865 61.1792 41.8518H61.2355V43.4804H68.086V28.8709H68.0882ZM37.7393 36.2678C37.7393 38.3518 36.5791 39.5814 33.8598 39.5814C31.1404 39.5814 29.9802 38.1935 29.9802 36.2678C29.9802 34.3422 31.2835 32.9564 33.8316 32.9564C36.577 32.9564 37.7393 34.212 37.7393 36.2678ZM37.9648 43.4783H44.8175V23.7401H37.7393V30.5233H37.6829C36.4664 29.1333 34.4279 28.4675 31.5394 28.4675C26.9529 28.4675 22.7351 30.8443 22.7351 36.2657C22.7351 41.687 26.9529 44.0638 31.5394 44.0638C34.6816 44.0638 36.6355 43.3156 37.9085 41.9277H37.9648V43.4761V43.4783ZM0 43.4783H21.4882V38.8311H7.98245V36.2678H20.5253V31.6206H7.98245V29.0574H21.4882V24.4102H0V43.4804V43.4783ZM6.36905 22.9659H13.1913L17.5241 19.1211H8.94744L6.3712 22.9659H6.36905Z" fill="black"/>
<path d="M218.508 43.1461H223.302V23.7549H218.508V43.1461ZM202.081 35.9877C202.081 33.1837 203.796 31.6072 206.767 31.6072C209.738 31.6072 211.453 33.1837 211.453 35.9877C211.453 38.7916 209.738 40.3682 206.767 40.3682C203.796 40.3682 202.081 38.7916 202.081 35.9877ZM197.123 35.9877C197.123 41.383 200.992 43.6795 206.767 43.6795C212.542 43.6795 216.411 41.383 216.411 35.9877C216.411 30.5923 212.542 28.2937 206.767 28.2937C200.992 28.2937 197.123 30.5902 197.123 35.9877ZM181.378 35.9877C181.378 33.1837 183.093 31.6072 186.062 31.6072C189.03 31.6072 190.748 33.1837 190.748 35.9877C190.748 38.7916 189.033 40.3682 186.062 40.3682C183.091 40.3682 181.378 38.7916 181.378 35.9877ZM176.418 35.9877C176.418 41.383 180.287 43.6795 186.062 43.6795C191.837 43.6795 195.707 41.383 195.707 35.9877C195.707 30.5923 191.839 28.2937 186.062 28.2937C180.285 28.2937 176.418 30.5902 176.418 35.9877ZM175.301 34.1184C174.401 29.3909 170.071 28.2958 166.365 28.2958C160.59 28.2958 156.721 30.5923 156.721 35.9898C156.721 41.3874 160.453 43.6817 165.957 43.6817C170.724 43.6817 174.427 42.5324 175.301 37.458H170.342C170.097 39.247 168.49 40.3703 166.365 40.3703C163.396 40.3703 161.678 38.7938 161.678 35.9898C161.678 33.1859 163.394 31.6094 166.365 31.6094C168.299 31.6094 169.769 32.2231 170.342 34.1206H175.301V34.1184ZM149.827 43.1461H154.622V23.7549H149.827V43.1461ZM134.814 33.2098C135.495 31.232 136.558 31.0737 138.601 31.0737C141.381 31.0737 142.361 31.6332 142.361 32.7826C142.361 33.9319 141.871 34.1726 140.398 34.2789L135.305 34.6258C132.39 34.8123 129.256 35.5605 129.256 39.0323C129.256 42.5042 131.928 43.6817 135.743 43.6817C137.894 43.6817 140.945 43.2263 142.58 41.6259C142.608 42.1334 142.743 42.6408 142.907 43.1482H147.702C147.375 42.4261 147.158 41.5197 147.158 40.2641V33.1599C147.158 30.4882 145.685 28.298 138.822 28.298C134.899 28.298 130.757 28.8054 130.185 33.2119H134.814V33.2098ZM142.524 37.3495C142.524 39.7523 139.826 40.9016 137.402 40.9016C135.604 40.9016 134.379 40.1817 134.379 38.8979C134.379 37.6141 135.224 37.1609 136.914 37.0286L139.692 36.7879C140.646 36.7076 141.628 36.6014 142.526 36.1742V37.3474L142.524 37.3495Z" fill="black"/>
<path d="M108.159 42.3365C107.66 42.3365 107.185 42.072 106.927 41.6253L87.4882 7.95417C87.1672 7.39685 87.2583 6.69207 87.7137 6.23884C87.9891 5.96344 88.3534 5.82031 88.7199 5.82031C88.9628 5.82031 89.21 5.8832 89.4312 6.01114L108.87 17.2334C109.31 17.4893 109.581 17.9577 109.581 18.4651V40.9118C109.581 41.5537 109.15 42.1175 108.527 42.2845C108.404 42.317 108.28 42.3344 108.159 42.3344" fill="black"/>
<path d="M114.864 42.3383C114.743 42.3383 114.619 42.3209 114.495 42.2884C113.873 42.1214 113.441 41.5576 113.441 40.9157V18.469C113.441 17.9616 113.712 17.491 114.153 17.2373L133.592 6.01505C133.813 5.88711 134.058 5.82422 134.303 5.82422C134.672 5.82422 135.036 5.96734 135.309 6.24058C135.764 6.69598 135.858 7.40076 135.537 7.95807L116.098 41.6292C115.84 42.0781 115.365 42.3405 114.866 42.3405" fill="black"/>
<path d="M111.512 14.0696C111.267 14.0696 111.022 14.0067 110.801 13.8787L91.362 2.65431C90.8047 2.33336 90.5336 1.67629 90.6984 1.05392C90.8654 0.431542 91.4293 0 92.0733 0H130.953C131.597 0 132.161 0.43371 132.328 1.05392C132.493 1.67629 132.222 2.33336 131.665 2.65431L112.226 13.8787C112.004 14.0067 111.759 14.0696 111.514 14.0696" fill="black"/>
<path d="M223.309 48.9375H0V50.0001H223.309V48.9375Z" fill="black"/>
</svg>
